<svg width="256" height="256" viewBox="0 0 256 256" fill="none" xmlns="http://www.w3.org/2000/svg">
<rect x="8" y="8" width="240" height="240" rx="8" fill="#3954AB"/>
<path d="M66.7083 204V51.8286H128.664C149.968 51.8286 166.852 58.7125 179.315 72.4804C191.924 86.1034 198.228 104.581 198.228 127.914C198.228 151.247 191.924 169.798 179.315 183.566C166.852 197.189 149.968 204 128.664 204H66.7083ZM105.838 169.218H126.49C135.62 169.218 143.301 165.522 149.533 158.131C155.91 150.595 159.098 140.523 159.098 127.914C159.098 115.306 155.91 105.306 149.533 97.9148C143.301 90.3787 135.62 86.6106 126.49 86.6106H105.838V169.218Z" fill="white"/>
</svg>
