<svg width="100" height="20" viewBox="0 0 100 20" fill="none" xmlns="http://www.w3.org/2000/svg">
<path d="M9.17298 2.2815C9.44553 1.46151 10.5544 1.4615 10.827 2.2815L12.2702 6.62341C12.3904 6.98515 12.7133 7.23042 13.0794 7.23822L17.4741 7.33188C18.304 7.34956 18.6467 8.45247 17.9852 8.97694L14.4825 11.754C14.1906 11.9854 14.0673 12.3823 14.1734 12.7488L15.4462 17.1486C15.6866 17.9795 14.7895 18.6612 14.1081 18.1653L10.5001 15.5398C10.1995 15.321 9.80048 15.321 9.49989 15.5398L5.89189 18.1653C5.2105 18.6612 4.31336 17.9796 4.55375 17.1486L5.82661 12.7488C5.93265 12.3823 5.80935 11.9854 5.51753 11.7541L2.0148 8.97694C1.3533 8.45247 1.69597 7.34956 2.52593 7.33188L6.9206 7.23822C7.28673 7.23042 7.60954 6.98515 7.72977 6.62342L9.17298 2.2815Z" fill="#FFC700"/>
<path d="M29.173 2.2815C29.4455 1.46151 30.5544 1.4615 30.827 2.2815L32.2702 6.62341C32.3904 6.98515 32.7133 7.23042 33.0794 7.23822L37.4741 7.33188C38.304 7.34956 38.6467 8.45247 37.9852 8.97694L34.4825 11.754C34.1906 11.9854 34.0673 12.3823 34.1734 12.7488L35.4462 17.1486C35.6866 17.9795 34.7895 18.6612 34.1081 18.1653L30.5001 15.5398C30.1995 15.321 29.8005 15.321 29.4999 15.5398L25.8919 18.1653C25.2105 18.6612 24.3134 17.9796 24.5538 17.1486L25.8266 12.7488C25.9326 12.3823 25.8093 11.9854 25.5175 11.7541L22.0148 8.97694C21.3533 8.45247 21.696 7.34956 22.5259 7.33188L26.9206 7.23822C27.2867 7.23042 27.6095 6.98515 27.7298 6.62342L29.173 2.2815Z" fill="#FFC700"/>
<path d="M49.173 2.2815C49.4455 1.46151 50.5544 1.4615 50.827 2.2815L52.2702 6.62341C52.3904 6.98515 52.7133 7.23042 53.0794 7.23822L57.4741 7.33188C58.304 7.34956 58.6467 8.45247 57.9852 8.97694L54.4825 11.754C54.1906 11.9854 54.0673 12.3823 54.1734 12.7488L55.4462 17.1486C55.6866 17.9795 54.7895 18.6612 54.1081 18.1653L50.5001 15.5398C50.1995 15.321 49.8005 15.321 49.4999 15.5398L45.8919 18.1653C45.2105 18.6612 44.3134 17.9796 44.5538 17.1486L45.8266 12.7488C45.9326 12.3823 45.8093 11.9854 45.5175 11.7541L42.0148 8.97694C41.3533 8.45247 41.696 7.34956 42.5259 7.33188L46.9206 7.23822C47.2867 7.23042 47.6095 6.98515 47.7298 6.62342L49.173 2.2815Z" fill="#FFC700"/>
<path d="M69.173 2.2815C69.4455 1.46151 70.5544 1.4615 70.827 2.2815L72.2702 6.62341C72.3904 6.98515 72.7133 7.23042 73.0794 7.23822L77.4741 7.33188C78.304 7.34956 78.6467 8.45247 77.9852 8.97694L74.4825 11.754C74.1906 11.9854 74.0673 12.3823 74.1734 12.7488L75.4462 17.1486C75.6866 17.9795 74.7895 18.6612 74.1081 18.1653L70.5001 15.5398C70.1995 15.321 69.8005 15.321 69.4999 15.5398L65.8919 18.1653C65.2105 18.6612 64.3134 17.9796 64.5538 17.1486L65.8266 12.7488C65.9326 12.3823 65.8093 11.9854 65.5175 11.7541L62.0148 8.97694C61.3533 8.45247 61.696 7.34956 62.5259 7.33188L66.9206 7.23822C67.2867 7.23042 67.6095 6.98515 67.7298 6.62342L69.173 2.2815Z" fill="#FFC700"/>
<path d="M89.173 2.2815C89.4455 1.46151 90.5544 1.4615 90.827 2.2815L92.2702 6.62341C92.3904 6.98515 92.7133 7.23042 93.0794 7.23822L97.4741 7.33188C98.304 7.34956 98.6467 8.45247 97.9852 8.97694L94.4825 11.754C94.1906 11.9854 94.0673 12.3823 94.1734 12.7488L95.4462 17.1486C95.6866 17.9795 94.7895 18.6612 94.1081 18.1653L90.5001 15.5398C90.1995 15.321 89.8005 15.321 89.4999 15.5398L85.8919 18.1653C85.2105 18.6612 84.3134 17.9796 84.5538 17.1486L85.8266 12.7488C85.9326 12.3823 85.8093 11.9854 85.5175 11.7541L82.0148 8.97694C81.3533 8.45247 81.696 7.34956 82.5259 7.33188L86.9206 7.23822C87.2867 7.23042 87.6095 6.98515 87.7298 6.62342L89.173 2.2815Z" fill="#FFC700"/>
</svg>
