<svg width="118" height="56" viewBox="0 0 118 56" fill="none" xmlns="http://www.w3.org/2000/svg">
<rect width="118" height="56" rx="7.22581" fill="#3954AB"/>
<path d="M81.8143 36.0213L91.0278 10.2236H98.7671L107.981 36.0213H100.978L99.6884 31.9674H90.1064L88.8166 36.0213H81.8143ZM92.1334 25.8865H97.6615L94.8974 17.4101L92.1334 25.8865Z" fill="white"/>
<path d="M70.1939 36.3897C66.4348 36.3897 63.4373 35.2227 61.2015 32.8886C58.9657 30.5545 57.8478 27.2991 57.8478 23.1223C57.8478 18.9456 58.9657 15.6902 61.2015 13.3561C63.4373 11.022 66.4348 9.85498 70.1939 9.85498C73.5107 9.85498 76.1273 10.7026 78.0437 12.3979C79.9601 14.0686 81.2131 16.2921 81.8028 19.0684H74.9849C74.6655 18.4296 74.3583 17.9137 74.0635 17.5206C73.7687 17.1029 73.2773 16.7098 72.5894 16.3412C71.9014 15.9481 71.1029 15.7516 70.1939 15.7516C68.302 15.7516 66.877 16.3904 65.9188 17.668C64.9606 18.9456 64.4815 20.7637 64.4815 23.1223C64.4815 25.481 64.9606 27.2991 65.9188 28.5767C66.877 29.8543 68.302 30.4931 70.1939 30.4931C71.1762 30.4931 71.9747 30.2842 72.5894 29.8665C73.2289 29.4488 73.7081 29.0556 74.0269 28.687C74.3705 28.2937 74.6779 27.7895 74.949 27.1739H81.8028C81.2131 30.0235 79.9354 32.2717 77.97 33.9184C76.0292 35.5659 73.3845 36.3897 70.1939 36.3897Z" fill="white"/>
<path d="M48.0715 36.0213V10.2236H61.0866V16.1207H55.0616V20.1746H60.807V26.0717H55.0616V30.1256H61.0866V36.0213H48.0715Z" fill="white"/>
<path d="M26.2861 36.0213V10.2236H34.9517C38.2685 10.2236 40.7715 11.2927 42.4606 13.4308C44.1496 15.5442 44.9941 18.5318 44.9941 22.3937C44.9941 25.1946 44.5027 27.5779 43.52 29.5437C42.5372 31.5095 41.2472 33.0171 39.65 34.0668C38.0527 35.1165 36.1729 36.0213 34.011 36.0213H26.2861ZM33.2755 16.1207H33.6071V30.1256H33.2755C32.3665 30.1256 31.5931 29.8897 30.9554 29.4179C30.3426 28.9461 29.8695 28.1223 29.5365 26.9463C29.2035 25.7704 29.0369 24.2628 29.0369 22.4235C29.0369 20.6343 29.1911 19.1444 29.4994 17.9537C29.8077 16.7383 30.2685 15.8459 30.8813 15.2763C31.5189 14.7067 32.3174 14.4219 33.2755 14.4219V16.1207Z" fill="white"/>
<path d="M26.2861 45.3244V39.4273H44.9941V45.3244H26.2861Z" fill="white"/>
<rect x="8.42993" y="8.06445" width="11.2517" height="39.871" rx="1.5" fill="white"/>
</svg>
