<svg width="118" height="56" viewBox="0 0 118 56" fill="none" xmlns="http://www.w3.org/2000/svg">
<rect width="118" height="56" rx="7.22581" fill="#3954AB"/>
<path d="M81.8143 36.0213L91.0278 10.2236H98.7671L107.981 36.0213H100.978L99.6884 31.9674H90.1064L88.8166 36.0213H81.8143ZM92.1334 25.8865H97.6615L94.8974 17.4101L92.1334 25.8865Z" fill="white"/>
<path d="M70.1939 36.3897C66.4348 36.3897 63.4373 35.2227 61.2015 32.8886C58.9657 30.5545 57.8478 27.2991 57.8478 23.1223C57.8478 18.9456 58.9657 15.6902 61.2015 13.3561C63.4373 11.022 66.4348 9.85498 70.1939 9.85498C73.5107 9.85498 76.1273 10.7026 78.0437 12.3979C79.9601 14.0686 81.2131 16.2921 81.8028 19.0684H74.9849C74.6655 18.4296 74.3583 17.9137 74.0635 17.5206C73.7687 17.1029 73.2773 16.7098 72.5894 16.3412C71.9014 15.9481 71.1029 15.7516 70.1939 15.7516C68.302 15.7516 66.877 16.3904 65.9188 17.668C64.9606 18.9456 64.4815 20.7637 64.4815 23.1223C64.4815 25.481 64.9606 27.2991 65.9188 28.5767C66.877 29.8543 68.302 30.4931 70.1939 30.4931C71.1029 30.4931 71.9014 30.3088 72.5894 29.9403C73.2773 29.5472 73.7687 29.1541 74.0635 28.761C74.3583 28.3433 74.6655 27.8151 74.9849 27.1763H81.8028C81.2131 29.9526 79.9601 32.1884 78.0437 33.8837C76.1273 35.5544 73.5107 36.3897 70.1939 36.3897Z" fill="white"/>
<path d="M36.6396 36.0213V10.2236H54.698V16.1202H43.2733V20.1742H53.9609V25.7022H43.2733V30.1247H55.0665V36.0213H36.6396Z" fill="white"/>
<path d="M10.6548 36.0213V10.2236H21.1582C24.7698 10.2236 27.6322 11.3907 29.7451 13.7247C31.8826 16.0342 32.9514 19.1668 32.9514 23.1225C32.9514 27.0781 31.8826 30.223 29.7451 32.557C27.6322 34.8665 24.7698 36.0213 21.1582 36.0213H10.6548ZM17.2885 30.1247H20.7896C22.3375 30.1247 23.6397 29.4982 24.6961 28.2451C25.7772 26.9675 26.3177 25.26 26.3177 23.1225C26.3177 20.9849 25.7772 19.2897 24.6961 18.0366C23.6397 16.759 22.3375 16.1202 20.7896 16.1202H17.2885V30.1247Z" fill="white"/>
<path d="M105.43 47.3735C104.893 47.3735 104.452 47.244 104.109 46.9849C103.765 46.7259 103.558 46.3609 103.487 45.8898H104.37C104.427 46.1112 104.547 46.2855 104.73 46.4127C104.919 46.5351 105.152 46.5964 105.43 46.5964C105.774 46.5964 106.03 46.5351 106.2 46.4127C106.369 46.2855 106.454 46.1112 106.454 45.8898C106.454 45.7203 106.384 45.5837 106.242 45.4801C106.106 45.3764 105.934 45.3058 105.727 45.2681C105.524 45.2304 105.3 45.1786 105.055 45.1127C104.815 45.0467 104.591 44.9737 104.384 44.8937C104.182 44.8089 104.01 44.6652 103.868 44.4627C103.732 44.2554 103.664 44.0011 103.664 43.6996C103.664 43.2616 103.824 42.9178 104.144 42.6681C104.464 42.4138 104.893 42.2866 105.43 42.2866C105.962 42.2866 106.384 42.4067 106.694 42.6469C107.005 42.8824 107.196 43.2098 107.267 43.629H106.384C106.271 43.2522 105.953 43.0638 105.43 43.0638C105.142 43.0638 104.923 43.1227 104.773 43.2404C104.622 43.3582 104.547 43.5112 104.547 43.6996C104.547 43.9069 104.643 44.067 104.836 44.1801C105.029 44.2931 105.265 44.3803 105.543 44.4415C105.821 44.498 106.099 44.5663 106.377 44.6464C106.654 44.7265 106.89 44.8701 107.083 45.0774C107.276 45.2799 107.373 45.5507 107.373 45.8898C107.373 46.3138 107.198 46.667 106.85 46.9496C106.501 47.2322 106.028 47.3735 105.43 47.3735Z" fill="white"/>
<path d="M99.2097 47.303V42.3574H101.259C101.739 42.3574 102.13 42.4987 102.431 42.7813C102.733 43.0639 102.884 43.4407 102.884 43.9118C102.884 44.152 102.844 44.3686 102.763 44.5617C102.688 44.7549 102.585 44.9079 102.453 45.021C102.325 45.134 102.201 45.2235 102.078 45.2895C101.96 45.3507 101.84 45.3978 101.718 45.4308L103.025 47.303H102.036L100.764 45.4661H100.093V47.303H99.2097ZM100.093 44.6889H101.195C101.44 44.6889 101.635 44.6206 101.781 44.484C101.927 44.3474 102 44.1567 102 43.9118C102 43.6668 101.927 43.4761 101.781 43.3395C101.635 43.2029 101.438 43.1346 101.188 43.1346H100.093V44.6889Z" fill="white"/>
<path d="M97.7385 46.7023C97.324 47.1498 96.7659 47.3735 96.0641 47.3735C95.3623 47.3735 94.8041 47.1498 94.3896 46.7023C93.9751 46.2549 93.7679 45.6308 93.7679 44.8301C93.7679 44.0294 93.9751 43.4053 94.3896 42.9578C94.8041 42.5104 95.3623 42.2866 96.0641 42.2866C96.7659 42.2866 97.324 42.5104 97.7385 42.9578C98.153 43.4053 98.3602 44.0294 98.3602 44.8301C98.3602 45.6308 98.153 46.2549 97.7385 46.7023ZM95.0325 46.1442C95.2869 46.4456 95.6307 46.5964 96.0641 46.5964C96.4974 46.5964 96.8412 46.4456 97.0956 46.1442C97.3499 45.838 97.4771 45.4 97.4771 44.8301C97.4771 44.2602 97.3499 43.8245 97.0956 43.523C96.8412 43.2169 96.4974 43.0638 96.0641 43.0638C95.6307 43.0638 95.2869 43.2169 95.0325 43.523C94.7782 43.8245 94.651 44.2602 94.651 44.8301C94.651 45.4 94.7782 45.838 95.0325 46.1442Z" fill="white"/>
<path d="M92.5086 46.7023C92.0941 47.1498 91.536 47.3735 90.8342 47.3735C90.1324 47.3735 89.5742 47.1498 89.1598 46.7023C88.7453 46.2549 88.538 45.6308 88.538 44.8301C88.538 44.0294 88.7453 43.4053 89.1598 42.9578C89.5742 42.5104 90.1324 42.2866 90.8342 42.2866C91.536 42.2866 92.0941 42.5104 92.5086 42.9578C92.9231 43.4053 93.1304 44.0294 93.1304 44.8301C93.1304 45.6308 92.9231 46.2549 92.5086 46.7023ZM89.8027 46.1442C90.057 46.4456 90.4009 46.5964 90.8342 46.5964C91.2675 46.5964 91.6114 46.4456 91.8657 46.1442C92.1201 45.838 92.2472 45.4 92.2472 44.8301C92.2472 44.2602 92.1201 43.8245 91.8657 43.523C91.6114 43.2169 91.2675 43.0638 90.8342 43.0638C90.4009 43.0638 90.057 43.2169 89.8027 43.523C89.5483 43.8245 89.4212 44.2602 89.4212 44.8301C89.4212 45.4 89.5483 45.838 89.8027 46.1442Z" fill="white"/>
<path d="M83.8375 47.303V42.3574H85.6745C86.3574 42.3574 86.8991 42.5741 87.2994 43.0074C87.6998 43.4407 87.9 44.0483 87.9 44.8302C87.9 45.6121 87.6998 46.2197 87.2994 46.653C86.8991 47.0864 86.3574 47.303 85.6745 47.303H83.8375ZM84.7207 46.5259H85.6391C86.0442 46.5259 86.3739 46.3798 86.6283 46.0878C86.8873 45.7958 87.0168 45.3766 87.0168 44.8302C87.0168 44.2839 86.8873 43.8647 86.6283 43.5726C86.3739 43.2806 86.0442 43.1346 85.6391 43.1346H84.7207V46.5259Z" fill="white"/>
<path d="M77.3726 47.303V42.3574H79.2096C79.8925 42.3574 80.4342 42.5741 80.8345 43.0074C81.2349 43.4407 81.4351 44.0483 81.4351 44.8302C81.4351 45.6121 81.2349 46.2197 80.8345 46.653C80.4342 47.0864 79.8925 47.303 79.2096 47.303H77.3726ZM78.2558 46.5259H79.1742C79.5793 46.5259 79.909 46.3798 80.1634 46.0878C80.4224 45.7958 80.5519 45.3766 80.5519 44.8302C80.5519 44.2839 80.4224 43.8647 80.1634 43.5726C79.909 43.2806 79.5793 43.1346 79.1742 43.1346H78.2558V46.5259Z" fill="white"/>
<path d="M72.1083 47.303V42.3574H73.274L75.3936 46.0666H75.4289V42.3574H76.312V47.303H75.1463L73.0267 43.5938H72.9914V47.303H72.1083Z" fill="white"/>
<path d="M66.9135 47.303L68.7151 42.3574H69.8102L71.6118 47.303H70.6933L70.3118 46.2433H68.2134L67.8319 47.303H66.9135ZM68.489 45.4661H70.0362L69.2803 43.3465H69.2449L68.489 45.4661Z" fill="white"/>
<path d="M63.4184 47.3735C62.8814 47.3735 62.441 47.244 62.0972 46.9849C61.7534 46.7259 61.5461 46.3609 61.4755 45.8898H62.3586C62.4151 46.1112 62.5352 46.2855 62.7189 46.4127C62.9073 46.5351 63.1405 46.5964 63.4184 46.5964C63.7622 46.5964 64.0189 46.5351 64.1885 46.4127C64.358 46.2855 64.4428 46.1112 64.4428 45.8898C64.4428 45.7203 64.3722 45.5837 64.2309 45.4801C64.0943 45.3764 63.9224 45.3058 63.7151 45.2681C63.5126 45.2304 63.2888 45.1786 63.0439 45.1127C62.8037 45.0467 62.58 44.9737 62.3727 44.8937C62.1702 44.8089 61.9983 44.6652 61.857 44.4627C61.7204 44.2554 61.6521 44.0011 61.6521 43.6996C61.6521 43.2616 61.8122 42.9178 62.1325 42.6681C62.4528 42.4138 62.8814 42.2866 63.4184 42.2866C63.9506 42.2866 64.3722 42.4067 64.683 42.6469C64.9939 42.8824 65.1847 43.2098 65.2553 43.629H64.3722C64.2591 43.2522 63.9412 43.0638 63.4184 43.0638C63.1311 43.0638 62.912 43.1227 62.7613 43.2404C62.6106 43.3582 62.5352 43.5112 62.5352 43.6996C62.5352 43.9069 62.6318 44.067 62.8249 44.1801C63.018 44.2931 63.2535 44.3803 63.5314 44.4415C63.8093 44.498 64.0872 44.5663 64.3651 44.6464C64.643 44.7265 64.8785 44.8701 65.0716 45.0774C65.2647 45.2799 65.3613 45.5507 65.3613 45.8898C65.3613 46.3138 65.187 46.667 64.8385 46.9496C64.4899 47.2322 64.0166 47.3735 63.4184 47.3735Z" fill="white"/>
<path d="M56.003 47.303L54.7313 42.3574H55.6498L56.4976 46.1019H56.5329L57.4514 42.3574H58.4758L59.3943 46.1019H59.4296L60.2775 42.3574H61.1959L59.9242 47.303H58.8644L57.9813 43.5938H57.946L57.0628 47.303H56.003Z" fill="white"/>
<path d="M53.7193 46.7023C53.3048 47.1498 52.7467 47.3735 52.0449 47.3735C51.3431 47.3735 50.7849 47.1498 50.3704 46.7023C49.956 46.2549 49.7487 45.6308 49.7487 44.8301C49.7487 44.0294 49.956 43.4053 50.3704 42.9578C50.7849 42.5104 51.3431 42.2866 52.0449 42.2866C52.7467 42.2866 53.3048 42.5104 53.7193 42.9578C54.1338 43.4053 54.3411 44.0294 54.3411 44.8301C54.3411 45.6308 54.1338 46.2549 53.7193 46.7023ZM51.0134 46.1442C51.2677 46.4456 51.6116 46.5964 52.0449 46.5964C52.4782 46.5964 52.8221 46.4456 53.0764 46.1442C53.3307 45.838 53.4579 45.4 53.4579 44.8301C53.4579 44.2602 53.3307 43.8245 53.0764 43.523C52.8221 43.2169 52.4782 43.0638 52.0449 43.0638C51.6116 43.0638 51.2677 43.2169 51.0134 43.523C50.759 43.8245 50.6319 44.2602 50.6319 44.8301C50.6319 45.4 50.759 45.838 51.0134 46.1442Z" fill="white"/>
<path d="M45.0482 47.303V42.3574H46.8852C47.5681 42.3574 48.1098 42.5741 48.5101 43.0074C48.9105 43.4407 49.1107 44.0483 49.1107 44.8302C49.1107 45.6121 48.9105 46.2197 48.5101 46.653C48.1098 47.0864 47.5681 47.303 46.8852 47.303H45.0482ZM45.9314 46.5259H46.8498C47.2549 46.5259 47.5846 46.3798 47.839 46.0878C48.098 45.7958 48.2275 45.3766 48.2275 44.8302C48.2275 44.2839 48.098 43.8647 47.839 43.5726C47.5846 43.2806 47.2549 43.1346 46.8498 43.1346H45.9314V46.5259Z" fill="white"/>
<path d="M39.7838 47.303V42.3574H40.9496L43.0691 46.0666H43.1044V42.3574H43.9876V47.303H42.8218L40.7023 43.5938H40.667V47.303H39.7838Z" fill="white"/>
<path d="M37.8381 47.303V42.3574H38.7213V47.303H37.8381Z" fill="white"/>
<path d="M32.0478 47.303L30.7761 42.3574H31.6945L32.5423 46.1019H32.5777L33.4961 42.3574H34.5206L35.4391 46.1019H35.4744L36.3222 42.3574H37.2407L35.9689 47.303H34.9092L34.026 43.5938H33.9907L33.1076 47.303H32.0478Z" fill="white"/>
<path d="M28.4256 46.7023C28.0111 47.1498 27.4529 47.3735 26.7511 47.3735C26.0493 47.3735 25.4912 47.1498 25.0767 46.7023C24.6622 46.2549 24.455 45.6308 24.455 44.8301C24.455 44.0294 24.6622 43.4053 25.0767 42.9578C25.4912 42.5104 26.0493 42.2866 26.7511 42.2866C27.4529 42.2866 28.0111 42.5104 28.4256 42.9578C28.8401 43.4053 29.0473 44.0294 29.0473 44.8301C29.0473 45.6308 28.8401 46.2549 28.4256 46.7023ZM25.7196 46.1442C25.974 46.4456 26.3178 46.5964 26.7511 46.5964C27.1845 46.5964 27.5283 46.4456 27.7826 46.1442C28.037 45.838 28.1642 45.4 28.1642 44.8301C28.1642 44.2602 28.037 43.8245 27.7826 43.523C27.5283 43.2169 27.1845 43.0638 26.7511 43.0638C26.3178 43.0638 25.974 43.2169 25.7196 43.523C25.4653 43.8245 25.3381 44.2602 25.3381 44.8301C25.3381 45.4 25.4653 45.838 25.7196 46.1442Z" fill="white"/>
<path d="M20.0718 47.303V42.3574H22.1207C22.6012 42.3574 22.9921 42.4987 23.2935 42.7813C23.595 43.0639 23.7457 43.4407 23.7457 43.9118C23.7457 44.152 23.7057 44.3686 23.6256 44.5617C23.5502 44.7549 23.4466 44.9079 23.3147 45.021C23.1876 45.134 23.0627 45.2235 22.9403 45.2895C22.8225 45.3507 22.7024 45.3978 22.58 45.4308L23.887 47.303H22.8979L21.6262 45.4661H20.955V47.303H20.0718ZM20.955 44.6889H22.0571C22.3021 44.6889 22.4975 44.6206 22.6436 44.484C22.7896 44.3474 22.8626 44.1567 22.8626 43.9118C22.8626 43.6668 22.7896 43.4761 22.6436 43.3395C22.4975 43.2029 22.2997 43.1346 22.0501 43.1346H20.955V44.6889Z" fill="white"/>
<path d="M17.0341 47.3737C16.4076 47.3737 15.9154 47.1853 15.5575 46.8085C15.1995 46.4317 15.0205 45.8994 15.0205 45.2117V42.3574H15.9037V45.2117C15.9037 45.6498 16.0049 45.9913 16.2075 46.2362C16.4147 46.4764 16.6902 46.5965 17.0341 46.5965C17.3732 46.5965 17.6464 46.4764 17.8536 46.2362C18.0609 45.9913 18.1645 45.6498 18.1645 45.2117V42.3574H19.0476V45.2117C19.0476 45.8947 18.8663 46.4269 18.5036 46.8085C18.1457 47.1853 17.6558 47.3737 17.0341 47.3737Z" fill="white"/>
<path d="M10.854 47.303V42.3574H14.104V43.1346H11.7371V44.4416H13.9627V45.1835H11.7371V46.5259H14.1746V47.303H10.854Z" fill="white"/>
</svg>
